<svg width="250" height="60" viewBox="0 0 250 60" fill="none" xmlns="http://www.w3.org/2000/svg">
<rect width="250" height="60" rx="5" fill="#D9D9D9" fill-opacity="0.86"/>
<rect x="19" y="10" width="50" height="32" rx="5" fill="#474747"/>
<rect x="39" y="43" width="9" height="6" rx="2" fill="#474747"/>
<rect x="26" y="46" width="35" height="3" rx="1.5" fill="#474747"/>
<path d="M38.012 33.604L33.404 30.592V29.44L38.012 26.428V27.94L34.76 29.992V30.04L38.012 32.092V33.604ZM39.0553 36.24L46.0973 24.06H47.7913L40.7493 36.24H39.0553ZM48.7778 33.604V32.092L52.0298 30.04V29.992L48.7778 27.94V26.428L53.3858 29.44V30.592L48.7778 33.604Z" fill="white"/>
<path d="M92 0H245C247.761 0 250 2.23858 250 5V55C250 57.7614 247.761 60 245 60H92V0Z" fill="#1E1E1E"/>
<path d="M108.552 29.768C108.088 28.872 107.336 28.264 106.296 27.944C105.272 27.656 104.256 27.768 103.248 28.28C102.224 28.776 101.592 29.736 101.352 31.16C101.096 32.552 101.328 33.832 102.048 35C102.752 36.136 103.808 36.68 105.216 36.632C106.56 36.616 107.584 36.184 108.288 35.336C108.592 35.128 108.856 35.088 109.08 35.216C109.272 35.36 109.24 35.664 108.984 36.128C108.12 37.136 107.152 37.712 106.08 37.856C105.008 38.016 104.088 37.912 103.32 37.544C102.936 37.368 102.584 37.16 102.264 36.92C101.96 36.664 101.68 36.384 101.424 36.08C100.88 35.488 100.512 34.68 100.32 33.656C100.096 32.664 100.144 31.528 100.464 30.248C100.752 28.936 101.496 27.944 102.696 27.272C103.88 26.584 105.152 26.432 106.512 26.816C107.84 27.232 108.824 28.024 109.464 29.192C109.56 29.72 109.528 30.04 109.368 30.152C109.176 30.264 108.904 30.136 108.552 29.768ZM117.528 26.504C118.456 26.472 119.288 26.76 120.024 27.368C120.792 27.96 121.344 28.824 121.68 29.96C122.032 31.08 122.064 32.296 121.776 33.608C121.488 34.952 120.864 36.032 119.904 36.848C118.928 37.68 117.816 38.024 116.568 37.88C115.272 37.736 114.256 37.28 113.52 36.512C112.8 35.792 112.328 34.808 112.104 33.56C111.88 32.376 111.976 31.16 112.392 29.912C112.776 28.68 113.424 27.776 114.336 27.2C115.232 26.608 116.296 26.376 117.528 26.504ZM117.84 27.44C116.592 27.36 115.608 27.568 114.888 28.064C114.12 28.56 113.592 29.312 113.304 30.32C112.968 31.344 112.88 32.344 113.04 33.32C113.12 33.816 113.248 34.264 113.424 34.664C113.6 35.064 113.84 35.424 114.144 35.744C114.704 36.368 115.512 36.728 116.568 36.824C117.592 36.92 118.528 36.624 119.376 35.936C120.176 35.264 120.68 34.384 120.888 33.296C121.096 32.208 121.048 31.184 120.744 30.224C120.44 29.264 120.024 28.6 119.496 28.232C119.256 28.056 119 27.896 118.728 27.752C118.456 27.608 118.16 27.504 117.84 27.44ZM133.608 21.44C133.672 25.216 133.688 28.168 133.656 30.296C133.64 32.424 133.592 33.72 133.512 34.184C133.448 34.648 133.328 35.072 133.152 35.456C132.976 35.84 132.76 36.192 132.504 36.512C132.264 36.832 131.984 37.096 131.664 37.304C131.344 37.496 130.976 37.648 130.56 37.76C129.76 37.984 128.904 38.008 127.992 37.832C127.032 37.688 126.256 37.304 125.664 36.68C125.36 36.36 125.104 36.008 124.896 35.624C124.688 35.24 124.536 34.808 124.44 34.328C124.2 33.384 124.224 32.288 124.512 31.04C124.768 29.824 125.448 28.896 126.552 28.256C127.608 27.648 128.712 27.44 129.864 27.632C130.968 27.84 131.872 28.296 132.576 29V21.392C132.576 20.832 132.752 20.544 133.104 20.528C133.44 20.512 133.608 20.816 133.608 21.44ZM132.624 32.864C132.704 31.952 132.528 31.128 132.096 30.392C131.648 29.624 130.912 29.136 129.888 28.928C128.848 28.704 127.92 28.824 127.104 29.288C126.272 29.736 125.736 30.528 125.496 31.664C125.224 32.832 125.352 33.896 125.88 34.856C126.44 35.848 127.096 36.44 127.848 36.632C128.584 36.84 129.368 36.832 130.2 36.608C130.952 36.416 131.536 36 131.952 35.36C132.16 35.04 132.312 34.68 132.408 34.28C132.52 33.864 132.592 33.392 132.624 32.864ZM137.232 33.032C137.312 33.56 137.432 34.032 137.592 34.448C137.768 34.848 137.992 35.192 138.264 35.48C138.52 35.752 138.848 35.992 139.248 36.2C139.648 36.408 140.12 36.576 140.664 36.704C141.768 36.96 142.952 36.888 144.216 36.488C144.648 36.392 144.896 36.48 144.96 36.752C145.024 37.056 144.848 37.304 144.432 37.496C143.184 37.928 141.96 38.048 140.76 37.856C139.528 37.68 138.512 37.192 137.712 36.392C136.896 35.576 136.44 34.456 136.344 33.032C136.28 32.312 136.28 31.672 136.344 31.112C136.424 30.536 136.544 30.032 136.704 29.6C136.88 29.184 137.08 28.816 137.304 28.496C137.528 28.176 137.784 27.896 138.072 27.656C138.632 27.192 139.256 26.864 139.944 26.672C140.28 26.592 140.616 26.544 140.952 26.528C141.304 26.512 141.632 26.52 141.936 26.552C142.592 26.648 143.184 26.872 143.712 27.224C144 27.384 144.256 27.576 144.48 27.8C144.704 28.008 144.896 28.24 145.056 28.496C145.344 29.024 145.576 29.648 145.752 30.368C145.896 31.088 145.92 31.696 145.824 32.192C145.728 32.688 145.496 32.96 145.128 33.008L137.232 33.032ZM144.792 32.048C144.952 30.864 144.744 29.856 144.168 29.024C143.528 28.192 142.816 27.72 142.032 27.608C141.2 27.48 140.448 27.536 139.776 27.776C139.44 27.904 139.12 28.096 138.816 28.352C138.528 28.592 138.272 28.904 138.048 29.288C137.568 30.04 137.344 30.952 137.376 32.024L144.792 32.048ZM151.344 36.248C151.344 36.728 151.192 37.12 150.888 37.424C150.6 37.728 150.192 37.88 149.664 37.88C149.248 37.88 148.872 37.736 148.536 37.448C148.2 37.16 148.032 36.792 148.032 36.344C148.032 35.832 148.2 35.432 148.536 35.144C148.872 34.84 149.272 34.688 149.736 34.688C150.264 34.688 150.664 34.848 150.936 35.168C151.208 35.472 151.344 35.832 151.344 36.248ZM167.784 36.848C167.72 37.424 167.544 37.728 167.256 37.76C166.952 37.808 166.752 37.632 166.656 37.232L164.976 29.552L163.176 37.016C163.112 37.464 162.936 37.72 162.648 37.784C162.392 37.848 162.176 37.664 162 37.232L159.84 27.728C159.776 27.248 159.896 26.976 160.2 26.912C160.472 26.864 160.704 27.008 160.896 27.344L162.576 34.856L164.376 27.56C164.472 27.224 164.648 27.032 164.904 26.984C165.176 26.952 165.408 27.176 165.6 27.656L167.28 34.736L169.176 27.392C169.32 27.056 169.536 26.912 169.824 26.96C170.112 27.024 170.256 27.296 170.256 27.776L167.784 36.848ZM173.232 33.032C173.312 33.56 173.432 34.032 173.592 34.448C173.768 34.848 173.992 35.192 174.264 35.48C174.52 35.752 174.848 35.992 175.248 36.2C175.648 36.408 176.12 36.576 176.664 36.704C177.768 36.96 178.952 36.888 180.216 36.488C180.648 36.392 180.896 36.48 180.96 36.752C181.024 37.056 180.848 37.304 180.432 37.496C179.184 37.928 177.96 38.048 176.76 37.856C175.528 37.68 174.512 37.192 173.712 36.392C172.896 35.576 172.44 34.456 172.344 33.032C172.28 32.312 172.28 31.672 172.344 31.112C172.424 30.536 172.544 30.032 172.704 29.6C172.88 29.184 173.08 28.816 173.304 28.496C173.528 28.176 173.784 27.896 174.072 27.656C174.632 27.192 175.256 26.864 175.944 26.672C176.28 26.592 176.616 26.544 176.952 26.528C177.304 26.512 177.632 26.52 177.936 26.552C178.592 26.648 179.184 26.872 179.712 27.224C180 27.384 180.256 27.576 180.48 27.8C180.704 28.008 180.896 28.24 181.056 28.496C181.344 29.024 181.576 29.648 181.752 30.368C181.896 31.088 181.92 31.696 181.824 32.192C181.728 32.688 181.496 32.96 181.128 33.008L173.232 33.032ZM180.792 32.048C180.952 30.864 180.744 29.856 180.168 29.024C179.528 28.192 178.816 27.72 178.032 27.608C177.2 27.48 176.448 27.536 175.776 27.776C175.44 27.904 175.12 28.096 174.816 28.352C174.528 28.592 174.272 28.904 174.048 29.288C173.568 30.04 173.344 30.952 173.376 32.024L180.792 32.048ZM185.52 21.56C185.472 26.12 185.448 28.736 185.448 29.408C185.832 28.864 186.552 28.448 187.608 28.16C188.648 27.904 189.72 27.928 190.824 28.232C191.896 28.536 192.696 29.128 193.224 30.008C193.464 30.44 193.648 30.872 193.776 31.304C193.904 31.72 193.968 32.144 193.968 32.576C193.968 33.456 193.8 34.28 193.464 35.048C193.096 35.848 192.64 36.456 192.096 36.872C191.536 37.304 190.624 37.584 189.36 37.712C188.08 37.824 187.056 37.608 186.288 37.064C185.888 36.792 185.56 36.504 185.304 36.2C185.048 35.88 184.848 35.552 184.704 35.216C184.576 34.864 184.472 34.496 184.392 34.112C184.328 33.712 184.296 33.288 184.296 32.84C184.28 32.392 184.28 31.224 184.296 29.336C184.328 27.432 184.36 24.8 184.392 21.44C184.488 20.96 184.704 20.728 185.04 20.744C185.36 20.76 185.52 21.032 185.52 21.56ZM187.68 36.488C188.528 36.76 189.264 36.816 189.888 36.656C190.208 36.576 190.512 36.48 190.8 36.368C191.088 36.256 191.36 36.112 191.616 35.936C192.128 35.6 192.512 34.864 192.768 33.728C193.024 32.608 192.896 31.632 192.384 30.8C191.84 29.984 191.152 29.448 190.32 29.192C189.488 28.936 188.56 29 187.536 29.384C187.04 29.56 186.632 29.784 186.312 30.056C186.008 30.328 185.792 30.632 185.664 30.968C185.552 31.32 185.464 31.696 185.4 32.096C185.352 32.48 185.344 32.88 185.376 33.296C185.424 34.16 185.624 34.84 185.976 35.336C186.152 35.592 186.376 35.816 186.648 36.008C186.936 36.2 187.28 36.36 187.68 36.488ZM199.344 36.248C199.344 36.728 199.192 37.12 198.888 37.424C198.6 37.728 198.192 37.88 197.664 37.88C197.248 37.88 196.872 37.736 196.536 37.448C196.2 37.16 196.032 36.792 196.032 36.344C196.032 35.832 196.2 35.432 196.536 35.144C196.872 34.84 197.272 34.688 197.736 34.688C198.264 34.688 198.664 34.848 198.936 35.168C199.208 35.472 199.344 35.832 199.344 36.248ZM217.608 21.44C217.672 25.216 217.688 28.168 217.656 30.296C217.64 32.424 217.592 33.72 217.512 34.184C217.448 34.648 217.328 35.072 217.152 35.456C216.976 35.84 216.76 36.192 216.504 36.512C216.264 36.832 215.984 37.096 215.664 37.304C215.344 37.496 214.976 37.648 214.56 37.76C213.76 37.984 212.904 38.008 211.992 37.832C211.032 37.688 210.256 37.304 209.664 36.68C209.36 36.36 209.104 36.008 208.896 35.624C208.688 35.24 208.536 34.808 208.44 34.328C208.2 33.384 208.224 32.288 208.512 31.04C208.768 29.824 209.448 28.896 210.552 28.256C211.608 27.648 212.712 27.44 213.864 27.632C214.968 27.84 215.872 28.296 216.576 29V21.392C216.576 20.832 216.752 20.544 217.104 20.528C217.44 20.512 217.608 20.816 217.608 21.44ZM216.624 32.864C216.704 31.952 216.528 31.128 216.096 30.392C215.648 29.624 214.912 29.136 213.888 28.928C212.848 28.704 211.92 28.824 211.104 29.288C210.272 29.736 209.736 30.528 209.496 31.664C209.224 32.832 209.352 33.896 209.88 34.856C210.44 35.848 211.096 36.44 211.848 36.632C212.584 36.84 213.368 36.832 214.2 36.608C214.952 36.416 215.536 36 215.952 35.36C216.16 35.04 216.312 34.68 216.408 34.28C216.52 33.864 216.592 33.392 216.624 32.864ZM221.232 33.032C221.312 33.56 221.432 34.032 221.592 34.448C221.768 34.848 221.992 35.192 222.264 35.48C222.52 35.752 222.848 35.992 223.248 36.2C223.648 36.408 224.12 36.576 224.664 36.704C225.768 36.96 226.952 36.888 228.216 36.488C228.648 36.392 228.896 36.48 228.96 36.752C229.024 37.056 228.848 37.304 228.432 37.496C227.184 37.928 225.96 38.048 224.76 37.856C223.528 37.68 222.512 37.192 221.712 36.392C220.896 35.576 220.44 34.456 220.344 33.032C220.28 32.312 220.28 31.672 220.344 31.112C220.424 30.536 220.544 30.032 220.704 29.6C220.88 29.184 221.08 28.816 221.304 28.496C221.528 28.176 221.784 27.896 222.072 27.656C222.632 27.192 223.256 26.864 223.944 26.672C224.28 26.592 224.616 26.544 224.952 26.528C225.304 26.512 225.632 26.52 225.936 26.552C226.592 26.648 227.184 26.872 227.712 27.224C228 27.384 228.256 27.576 228.48 27.8C228.704 28.008 228.896 28.24 229.056 28.496C229.344 29.024 229.576 29.648 229.752 30.368C229.896 31.088 229.92 31.696 229.824 32.192C229.728 32.688 229.496 32.96 229.128 33.008L221.232 33.032ZM228.792 32.048C228.952 30.864 228.744 29.856 228.168 29.024C227.528 28.192 226.816 27.72 226.032 27.608C225.2 27.48 224.448 27.536 223.776 27.776C223.44 27.904 223.12 28.096 222.816 28.352C222.528 28.592 222.272 28.904 222.048 29.288C221.568 30.04 221.344 30.952 221.376 32.024L228.792 32.048ZM237.36 37.496C237.008 38.136 236.64 38.168 236.256 37.592L232.44 27.344C232.232 26.816 232.296 26.496 232.632 26.384C232.968 26.288 233.224 26.424 233.4 26.792L236.808 36.104L240.696 26.936C240.968 26.6 241.24 26.512 241.512 26.672C241.784 26.848 241.816 27.144 241.608 27.56L237.36 37.496Z" fill="white"/>
</svg>
